<svg viewBox="0 0 25 25" xmlns="http://www.w3.org/2000/svg"><path d="M3.583 1.949c-.319.123-.454.213-.746.501-.661.654-.729 1.338-.198 2.008.099.126 1.895 2.019 3.99 4.206 2.095 2.188 3.809 3.991 3.809 4.008 0 .017-1.566 1.666-3.48 3.665-4.368 4.562-4.378 4.572-4.516 4.846-.303.598-.183 1.122.389 1.696.764.768 1.464.783 2.237.047.161-.154 1.94-2.002 3.953-4.107l3.659-3.826.3.306c.166.168 1.795 1.871 3.621 3.784a409.155 409.155 0 0 0 3.659 3.804c.223.214.429.368.606.452.238.113.302.126.566.113.407-.021.706-.172 1.09-.553.581-.576.704-1.073.415-1.673-.164-.342.27.126-4.969-5.347-1.678-1.754-3.047-3.202-3.041-3.218.006-.016 1.604-1.693 3.552-3.726 4.288-4.477 4.312-4.502 4.463-4.801.103-.204.121-.286.121-.571 0-.439-.129-.709-.524-1.104-.399-.4-.739-.564-1.163-.561-.373.002-.578.087-.924.384-.126.109-1.922 1.965-3.99 4.127-2.069 2.161-3.775 3.923-3.792 3.916a569.335 569.335 0 0 1-3.822-3.971c-2.085-2.177-3.863-4.022-3.953-4.1-.376-.328-.921-.455-1.312-.305" fill-rule="evenodd" fill="#6e7780"/></svg>